<svg width="81" height="22" viewBox="0 0 81 22" fill="none" xmlns="http://www.w3.org/2000/svg">
<path d="M8.04856 21.3939C6.62303 21.3939 5.3663 21.1219 4.27839 20.578C3.19048 20.0153 2.34642 19.2368 1.74619 18.2427C1.14596 17.2486 0.845851 16.095 0.845851 14.782V7.97322C0.845851 6.43514 1.14596 5.1409 1.74619 4.09051C2.36517 3.04011 3.228 2.25232 4.33466 1.72712C5.44133 1.18316 6.72619 0.911186 8.18924 0.911186C9.63353 0.911186 10.8809 1.16441 11.9313 1.67085C12.9817 2.15853 13.7882 2.86192 14.3509 3.78102C14.9136 4.68136 15.195 5.74113 15.195 6.96034H12.2126C12.2126 5.98497 11.8844 5.17842 11.2279 4.54068C10.5901 3.88418 9.57726 3.55593 8.18924 3.55593C6.78246 3.55593 5.69455 3.93107 4.92551 4.68136C4.17523 5.41288 3.80009 6.43514 3.80009 7.74814V10.1115H4.25026C4.56913 9.66136 5.08495 9.22994 5.79772 8.81729C6.52924 8.40463 7.56088 8.19831 8.89263 8.19831C10.0556 8.19831 11.1247 8.45153 12.1001 8.95797C13.0755 9.46441 13.8539 10.1866 14.4353 11.1244C15.0356 12.0623 15.3357 13.1971 15.3357 14.5288V14.8664C15.3357 16.1607 15.0262 17.3049 14.4072 18.299C13.7882 19.2744 12.9254 20.034 11.8187 20.578C10.7308 21.1219 9.4741 21.3939 8.04856 21.3939ZM8.0767 18.7492C9.38969 18.7492 10.4307 18.3928 11.1997 17.68C11.9875 16.9672 12.3814 16.0106 12.3814 14.8102V14.5851C12.3814 13.7785 12.2033 13.0845 11.8469 12.5031C11.4905 11.9028 10.984 11.4339 10.3275 11.0963C9.68981 10.7586 8.93952 10.5898 8.0767 10.5898C7.23263 10.5898 6.48235 10.7586 5.82585 11.0963C5.18811 11.4339 4.69105 11.9028 4.33466 12.5031C3.97828 13.0845 3.80009 13.7785 3.80009 14.5851V14.8102C3.80009 16.0106 4.18461 16.9672 4.95365 17.68C5.74144 18.3928 6.78246 18.7492 8.0767 18.7492ZM18.0996 21V1.30508H30.5074V4.06237H21.1382V9.71763H29.7196V12.4749H21.1382V18.2427H30.648V21H18.0996ZM33.2532 21V1.30508H39.1054L44.4512 18.9742H44.9014V1.30508H47.9119V21H42.0597L36.7139 3.30271H36.2637V21H33.2532ZM58.153 21.3939C56.6712 21.3939 55.3582 21.1313 54.214 20.6061C53.0698 20.0809 52.1695 19.3119 51.513 18.299C50.8753 17.2673 50.5564 16.02 50.5564 14.5569V13.8536H53.5669V14.5569C53.5669 15.945 53.9795 16.986 54.8049 17.68C55.6489 18.374 56.765 18.721 58.153 18.721C59.5598 18.721 60.6195 18.4303 61.3323 17.8488C62.0451 17.2486 62.4015 16.4795 62.4015 15.5417C62.4015 14.9227 62.2327 14.4163 61.895 14.0224C61.5574 13.6285 61.0791 13.319 60.4601 13.0939C59.8411 12.8501 59.1002 12.625 58.2374 12.4186L57.1964 12.1654C55.9397 11.8653 54.8424 11.4995 53.9045 11.0681C52.9854 10.618 52.2727 10.0271 51.7662 9.29559C51.2598 8.56407 51.0066 7.62621 51.0066 6.48203C51.0066 5.3191 51.2879 4.32497 51.8506 3.49966C52.4321 2.67435 53.2293 2.03661 54.2421 1.58644C55.255 1.13627 56.4461 0.911186 57.8154 0.911186C59.1846 0.911186 60.4038 1.14565 61.473 1.61458C62.5609 2.0835 63.4143 2.77751 64.0333 3.69661C64.6523 4.61571 64.9618 5.76927 64.9618 7.15729V8.17017H61.9513V7.15729C61.9513 6.31322 61.7731 5.62859 61.4167 5.10339C61.0791 4.57819 60.6008 4.19367 59.9818 3.94983C59.3628 3.70599 58.6407 3.58407 57.8154 3.58407C56.6149 3.58407 55.6771 3.83729 55.0018 4.34373C54.3453 4.83141 54.0171 5.51604 54.0171 6.39763C54.0171 6.99785 54.1577 7.49492 54.4391 7.88881C54.7392 8.26396 55.1706 8.57345 55.7333 8.81729C56.296 9.06113 56.9994 9.27684 57.8435 9.46441L58.8845 9.71763C60.16 9.99898 61.2854 10.3647 62.2608 10.8149C63.2362 11.2463 64.0052 11.8372 64.5679 12.5875C65.1306 13.3377 65.412 14.3037 65.412 15.4854C65.412 16.6671 65.1119 17.6988 64.5116 18.5803C63.9302 19.4619 63.0955 20.1559 62.0076 20.6624C60.9197 21.1501 59.6348 21.3939 58.153 21.3939ZM68.0391 21V1.30508H80.4469V4.06237H71.0778V9.71763H79.6591V12.4749H71.0778V18.2427H80.5876V21H68.0391Z" fill="white"/>
</svg>
